<?xml version="1.0" standalone="no"?>
<!DOCTYPE svg PUBLIC "-//W3C//DTD SVG 20010904//EN"
 "http://www.w3.org/TR/2001/REC-SVG-20010904/DTD/svg10.dtd">
<svg version="1.0" xmlns="http://www.w3.org/2000/svg"
 width="580.000000pt" height="580.000000pt" viewBox="0 0 580.000000 580.000000"
 preserveAspectRatio="xMidYMid meet">
<metadata>
Created by potrace 1.11, written by Peter Selinger 2001-2013
</metadata>
<g transform="translate(0.000000,580.000000) scale(0.100000,-0.100000)"
fill="#000000" stroke="none">
<path d="M1130 3795 l0 -875 125 0 125 0 0 875 0 875 -125 0 -125 0 0 -875z"/>
<path d="M2010 4295 l0 -125 310 0 310 0 0 -125 0 -125 -262 0 c-161 0 -278
-4 -303 -11 -63 -18 -118 -62 -150 -121 -29 -52 -30 -57 -33 -217 -2 -101 1
-181 8 -209 17 -67 60 -123 122 -157 l53 -30 408 -3 407 -3 0 508 c0 304 -5
526 -11 552 -15 64 -59 122 -121 156 l-53 30 -342 3 -343 3 0 -126z m620 -750
l0 -125 -250 0 -250 0 0 125 0 125 250 0 250 0 0 -125z"/>
<path d="M4380 2045 l0 -875 125 0 125 0 0 875 0 875 -125 0 -125 0 0 -875z"/>
<path d="M3380 2605 l0 -65 -125 0 -125 0 0 -120 0 -120 125 0 125 0 0 -315 0
-315 -125 0 -125 0 0 -125 0 -125 375 0 375 0 0 125 0 125 -125 0 -125 0 0
500 0 500 -125 0 -125 0 0 -65z"/>
</g>
</svg>
